<?xml version="1.0" standalone="no"?>
<svg xmlns="http://www.w3.org/2000/svg"
 viewBox="0 0 217 249"
 preserveAspectRatio="xMidYMid meet">
<g transform="translate(0,249) scale(0.1,-0.1)"
fill="white" stroke="none">
<path d="M913 2375 c-349 -63 -646 -316 -759 -647 -138 -407 0 -864 335 -1103
l70 -50 0 -157 1 -158 45 0 45 0 0 800 0 800 230 0 c130 0 252 -5 282 -11 132
-28 238 -111 298 -232 39 -80 51 -189 30 -279 -33 -143 -145 -261 -285 -303
-38 -11 -40 -15 -43 -55 l-3 -42 38 6 c61 11 174 71 225 120 185 177 217 446
77 656 -47 69 -112 126 -189 165 -100 51 -131 55 -452 55 l-298 0 0 -630 c0
-346 -3 -630 -6 -630 -15 0 -121 99 -171 159 -70 85 -147 242 -174 356 -30
124 -30 296 -1 418 81 329 331 581 662 668 121 32 310 32 430 0 330 -88 583
-342 660 -663 24 -100 27 -299 6 -398 -32 -151 -114 -310 -220 -427 -143 -158
-366 -273 -562 -290 l-74 -6 0 512 0 511 -45 0 -45 0 2 -757 3 -758 40 0 40 0
3 202 2 202 58 6 c364 39 676 266 818 594 102 237 111 495 24 733 -163 446
-632 717 -1097 633z"/>
</g>
</svg>
